<?xml version="1.0" standalone="no"?>
<!DOCTYPE svg PUBLIC "-//W3C//DTD SVG 20010904//EN"
 "http://www.w3.org/TR/2001/REC-SVG-20010904/DTD/svg10.dtd">
<svg version="1.0" xmlns="http://www.w3.org/2000/svg"
 width="579.000000pt" height="211.000000pt" viewBox="0 0 579.000000 211.000000"
 preserveAspectRatio="xMidYMid meet">

<g transform="translate(0.000000,211.000000) scale(0.100000,-0.100000)"
fill="#000000" stroke="none">
<path d="M0 1055 l0 -1055 2895 0 2895 0 0 1055 0 1055 -2895 0 -2895 0 0
-1055z m1080 458 c-1 -53 -2 -56 -15 -39 -15 20 -20 77 -8 89 16 17 23 3 23
-50z m-252 -66 c25 -37 28 -57 10 -57 -13 0 -58 62 -58 80 0 21 26 9 48 -23z
m522 24 c0 -14 -44 -74 -57 -79 -19 -6 -16 16 8 54 19 31 49 46 49 25z m-132
-102 c37 -18 60 -35 56 -41 -5 -7 -2 -8 5 -4 18 12 84 -62 117 -131 25 -51 28
-69 28 -153 0 -116 -23 -175 -102 -261 l-52 -57 -6 -108 c-7 -144 -8 -146 -49
-168 -19 -11 -35 -23 -35 -28 0 -5 -14 -22 -30 -38 -25 -24 -39 -30 -76 -30
-70 0 -139 48 -118 82 4 7 3 8 -5 4 -6 -4 -24 2 -41 14 -33 24 -37 39 -44 181
l-4 95 -49 50 c-63 64 -103 145 -110 223 -6 66 13 181 30 181 6 0 8 3 4 6 -15
15 85 144 111 144 7 0 12 4 12 9 0 15 59 41 125 57 82 19 157 10 233 -27z
m306 -74 c4 -10 -8 -23 -35 -40 -39 -25 -72 -26 -47 -2 11 11 70 56 74 57 1 0
4 -7 8 -15z m-865 -22 c20 -14 38 -28 40 -30 3 -2 0 -8 -6 -14 -7 -7 -14 -6
-24 3 -8 7 -26 19 -41 25 -28 12 -34 23 -21 36 10 10 13 9 52 -20z m4028 -38
c34 -10 61 -27 82 -50 36 -41 39 -61 11 -70 -15 -5 -32 3 -60 29 -35 31 -47
36 -90 36 -41 0 -56 -5 -75 -25 -55 -54 -24 -111 83 -155 146 -61 182 -97 182
-182 0 -39 -6 -54 -31 -83 -38 -43 -61 -56 -114 -66 -84 -16 -183 30 -220 102
-14 27 -14 29 10 45 14 9 27 15 28 13 2 -2 11 -17 21 -32 38 -61 123 -85 186
-52 34 18 50 43 50 80 0 47 -19 64 -134 119 -107 52 -115 58 -136 101 -43 90
4 175 110 196 19 4 38 7 41 8 3 0 28 -6 56 -14z m-2517 -25 l0 -30 -130 0
-130 0 0 -95 0 -95 110 0 110 0 0 -30 0 -30 -110 0 -110 0 0 -125 0 -125 -35
0 -35 0 0 273 c0 151 3 277 7 280 3 4 78 7 165 7 l158 0 0 -30z m140 -147 c1
-98 5 -198 9 -222 24 -122 179 -150 248 -45 15 24 18 57 22 236 l3 208 30 0
29 0 -3 -223 -3 -224 -28 -41 c-74 -113 -260 -113 -334 0 l-28 41 -3 224 -3
223 30 0 31 0 0 -177z m651 -38 c90 -118 167 -214 172 -215 4 0 7 97 7 215 l0
215 30 0 30 0 0 -281 0 -280 -27 3 c-22 2 -57 41 -188 210 -88 114 -163 210
-167 213 -3 4 -6 -8 -6 -27 0 -18 0 -115 -1 -215 l-1 -183 -30 0 -30 0 0 280
0 280 23 0 c19 0 57 -44 188 -215z m548 205 c68 -13 117 -36 156 -76 139 -138
88 -387 -92 -454 -42 -16 -78 -20 -163 -20 l-110 0 0 280 0 280 79 0 c43 0
102 -4 130 -10z m550 1 c77 -15 133 -75 145 -154 11 -73 -24 -137 -98 -182
-14 -9 -9 -21 45 -95 87 -122 87 -120 45 -120 -33 0 -39 6 -103 100 l-68 99
-67 1 -68 0 0 -100 0 -100 -30 0 -30 0 0 280 0 280 93 0 c50 -1 112 -5 136 -9z
m309 -273 l2 -278 -35 0 -35 0 0 281 0 280 33 -3 32 -3 3 -277z m852 247 l0
-35 -125 0 -125 0 0 -90 0 -90 100 0 100 0 0 -30 0 -30 -100 0 -100 0 0 -95 0
-95 130 0 130 0 0 -30 0 -30 -165 0 -165 0 0 280 0 280 160 0 160 0 0 -35z
m-3642 -167 c3 -14 -3 -18 -30 -18 -18 0 -43 3 -56 6 -18 5 -20 9 -11 21 18
21 93 14 97 -9z m-923 2 c3 -5 -5 -12 -18 -15 -36 -9 -90 -2 -95 13 -5 15 103
17 113 2z m45 -213 c0 -16 -78 -60 -91 -52 -11 7 7 35 23 35 5 0 18 9 30 20
21 20 38 18 38 -3z m786 -8 c19 -11 34 -27 34 -35 0 -8 -2 -14 -5 -14 -11 0
-55 24 -55 30 0 4 -9 10 -20 13 -24 6 -27 27 -4 27 9 0 32 -9 50 -21z"/>
<path d="M975 1351 c-11 -4 -26 -6 -34 -3 -8 3 -12 1 -8 -5 4 -6 -3 -13 -16
-17 -31 -7 -101 -77 -134 -133 -26 -44 -28 -56 -27 -148 1 -100 4 -135 14
-145 12 -11 45 -66 45 -75 1 -5 6 -9 11 -8 23 4 74 -62 78 -102 6 -64 12 -72
53 -68 20 1 37 4 39 6 2 2 -12 88 -31 193 -37 200 -39 229 -15 230 24 1 51
-16 44 -28 -4 -7 -3 -8 5 -4 6 4 24 -2 40 -13 l28 -20 34 25 c18 13 39 22 46
20 7 -3 10 1 7 8 -6 16 18 27 36 16 8 -5 11 -21 7 -46 -12 -90 -17 -125 -37
-244 -11 -69 -20 -128 -20 -132 0 -5 17 -8 39 -8 41 0 51 13 51 71 0 29 66
113 81 103 5 -3 9 -2 8 3 -1 4 13 39 31 76 31 64 32 73 28 155 -3 72 -9 97
-31 136 -15 27 -24 53 -20 60 3 6 3 8 -1 4 -5 -4 -20 4 -35 18 -52 49 -127 77
-215 81 -45 1 -90 -1 -101 -6z"/>
<path d="M975 988 c4 -24 19 -108 33 -188 l27 -145 35 0 35 0 27 155 c43 240
43 237 -6 199 -14 -11 -26 -17 -26 -13 0 4 -6 -1 -14 -11 -13 -19 -15 -18 -50
5 -20 14 -36 28 -36 33 0 4 -7 7 -16 7 -12 0 -14 -8 -9 -42z"/>
<path d="M970 621 c0 -9 -8 -12 -25 -9 -18 4 -26 0 -31 -14 -12 -39 -4 -41
174 -39 l132 1 0 25 c0 24 -3 25 -57 26 -32 0 -85 0 -117 -1 -39 -1 -62 3 -67
12 -7 11 -9 11 -9 -1z"/>
<path d="M913 514 c-3 -8 -1 -20 4 -25 5 -5 75 -10 154 -12 l145 -2 2 28 2 27
-150 0 c-128 0 -152 -2 -157 -16z"/>
<path d="M1008 442 c-61 -7 -7 -52 62 -52 48 0 70 13 70 40 0 12 -12 15 -52
15 -29 0 -65 -1 -80 -3z"/>
<path d="M3370 955 l0 -215 58 0 c107 0 180 35 219 105 65 116 19 260 -99 309
-22 10 -67 16 -108 16 l-70 0 0 -215z"/>
<path d="M3890 1056 l0 -116 78 0 c100 0 142 19 161 76 17 48 10 82 -23 121
-23 26 -30 28 -120 31 l-96 4 0 -116z"/>
</g>
</svg>
